<?xml version="1.0" encoding="UTF-8" standalone="no"?>
<!-- Created with Inkscape (http://www.inkscape.org/) -->
<svg
   xmlns:dc="http://purl.org/dc/elements/1.1/"
   xmlns:cc="http://creativecommons.org/ns#"
   xmlns:rdf="http://www.w3.org/1999/02/22-rdf-syntax-ns#"
   xmlns:svg="http://www.w3.org/2000/svg"
   xmlns="http://www.w3.org/2000/svg"
   xmlns:xlink="http://www.w3.org/1999/xlink"
   xmlns:sodipodi="http://sodipodi.sourceforge.net/DTD/sodipodi-0.dtd"
   xmlns:inkscape="http://www.inkscape.org/namespaces/inkscape"
   width="744.09448819"
   height="1052.3622047"
   id="svg2"
   sodipodi:version="0.32"
   inkscape:version="0.46"
   sodipodi:docname="bullet.svg"
   inkscape:output_extension="org.inkscape.output.svg.inkscape"
   inkscape:export-filename="/home/jmmuller/Desktop/bullet.png"
   inkscape:export-xdpi="17.860052"
   inkscape:export-ydpi="17.860052">
  <defs
     id="defs4">
    <linearGradient
       id="linearGradient3178">
      <stop
         id="stop3180"
         offset="0"
         style="stop-color:#969696;stop-opacity:0;" />
      <stop
         id="stop3182"
         offset="1"
         style="stop-color:#fffff5;stop-opacity:0.81512606;" />
    </linearGradient>
    <linearGradient
       id="linearGradient3162">
      <stop
         style="stop-color:#969696;stop-opacity:1;"
         offset="0"
         id="stop3164" />
      <stop
         style="stop-color:#000000;stop-opacity:1;"
         offset="1"
         id="stop3166" />
    </linearGradient>
    <inkscape:perspective
       sodipodi:type="inkscape:persp3d"
       inkscape:vp_x="0 : 526.18109 : 1"
       inkscape:vp_y="0 : 1000 : 0"
       inkscape:vp_z="744.09448 : 526.18109 : 1"
       inkscape:persp3d-origin="372.04724 : 350.78739 : 1"
       id="perspective10" />
    <radialGradient
       inkscape:collect="always"
       xlink:href="#linearGradient3162"
       id="radialGradient3195"
       gradientUnits="userSpaceOnUse"
       gradientTransform="matrix(1,0,0,0.518843,0,133.37822)"
       cx="438.25"
       cy="277.20312"
       fx="438.25"
       fy="277.20312"
       r="94.53125" />
    <radialGradient
       inkscape:collect="always"
       xlink:href="#linearGradient3162"
       id="radialGradient3197"
       gradientUnits="userSpaceOnUse"
       gradientTransform="matrix(1,0,0,0.518843,0.3214294,133.53727)"
       cx="438.25"
       cy="277.20312"
       fx="438.25"
       fy="277.20312"
       r="94.53125" />
    <linearGradient
       inkscape:collect="always"
       xlink:href="#linearGradient3178"
       id="linearGradient3199"
       gradientUnits="userSpaceOnUse"
       gradientTransform="translate(64.642857,-45)"
       x1="281.89731"
       y1="322.36218"
       x2="465.95981"
       y2="322.36218" />
    <filter
       inkscape:collect="always"
       id="filter3239"
       x="-0.072373609"
       width="1.1447472"
       y="-0.23661432"
       height="1.4732286">
      <feGaussianBlur
         inkscape:collect="always"
         stdDeviation="10.446786"
         id="feGaussianBlur3241" />
    </filter>
    <filter
       inkscape:collect="always"
       id="filter3293"
       x="-0.036354811"
       width="1.0727096"
       y="-0.14130965"
       height="1.2826193">
      <feGaussianBlur
         inkscape:collect="always"
         stdDeviation="4.8860408"
         id="feGaussianBlur3295" />
    </filter>
    <radialGradient
       inkscape:collect="always"
       xlink:href="#linearGradient3162"
       id="radialGradient3322"
       gradientUnits="userSpaceOnUse"
       gradientTransform="matrix(1,0,0,0.518843,0,133.37822)"
       cx="438.25"
       cy="277.20312"
       fx="438.25"
       fy="277.20312"
       r="94.53125" />
    <radialGradient
       inkscape:collect="always"
       xlink:href="#linearGradient3162"
       id="radialGradient3324"
       gradientUnits="userSpaceOnUse"
       gradientTransform="matrix(1,0,0,0.518843,0.3214294,133.53727)"
       cx="438.25"
       cy="277.20312"
       fx="438.25"
       fy="277.20312"
       r="94.53125" />
    <linearGradient
       inkscape:collect="always"
       xlink:href="#linearGradient3178"
       id="linearGradient3326"
       gradientUnits="userSpaceOnUse"
       gradientTransform="translate(64.642857,-45)"
       x1="281.89731"
       y1="322.36218"
       x2="465.95981"
       y2="322.36218" />
    <radialGradient
       inkscape:collect="always"
       xlink:href="#linearGradient3162"
       id="radialGradient3376"
       gradientUnits="userSpaceOnUse"
       gradientTransform="matrix(1,0,0,0.518843,0,133.37822)"
       cx="438.25"
       cy="277.20312"
       fx="438.25"
       fy="277.20312"
       r="94.53125" />
    <radialGradient
       inkscape:collect="always"
       xlink:href="#linearGradient3162"
       id="radialGradient3378"
       gradientUnits="userSpaceOnUse"
       gradientTransform="matrix(1,0,0,0.518843,0.3214294,133.53727)"
       cx="438.25"
       cy="277.20312"
       fx="438.25"
       fy="277.20312"
       r="94.53125" />
    <linearGradient
       inkscape:collect="always"
       xlink:href="#linearGradient3178"
       id="linearGradient3380"
       gradientUnits="userSpaceOnUse"
       gradientTransform="translate(64.642857,-45)"
       x1="281.89731"
       y1="322.36218"
       x2="465.95981"
       y2="322.36218" />
    <radialGradient
       inkscape:collect="always"
       xlink:href="#linearGradient3162"
       id="radialGradient3398"
       gradientUnits="userSpaceOnUse"
       gradientTransform="matrix(1,0,0,0.518843,0,133.37822)"
       cx="438.25"
       cy="277.20312"
       fx="438.25"
       fy="277.20312"
       r="94.53125" />
    <radialGradient
       inkscape:collect="always"
       xlink:href="#linearGradient3162"
       id="radialGradient3400"
       gradientUnits="userSpaceOnUse"
       gradientTransform="matrix(1,0,0,0.518843,0.3214294,133.53727)"
       cx="438.25"
       cy="277.20312"
       fx="438.25"
       fy="277.20312"
       r="94.53125" />
    <linearGradient
       inkscape:collect="always"
       xlink:href="#linearGradient3178"
       id="linearGradient3402"
       gradientUnits="userSpaceOnUse"
       gradientTransform="translate(64.642857,-45)"
       x1="281.89731"
       y1="322.36218"
       x2="465.95981"
       y2="322.36218" />
    <radialGradient
       inkscape:collect="always"
       xlink:href="#linearGradient3162"
       id="radialGradient3424"
       gradientUnits="userSpaceOnUse"
       gradientTransform="matrix(1,0,0,0.518843,0,133.37822)"
       cx="438.25"
       cy="277.20312"
       fx="438.25"
       fy="277.20312"
       r="94.53125" />
    <radialGradient
       inkscape:collect="always"
       xlink:href="#linearGradient3162"
       id="radialGradient3426"
       gradientUnits="userSpaceOnUse"
       gradientTransform="matrix(1,0,0,0.518843,0.3214294,133.53727)"
       cx="438.25"
       cy="277.20312"
       fx="438.25"
       fy="277.20312"
       r="94.53125" />
    <linearGradient
       inkscape:collect="always"
       xlink:href="#linearGradient3178"
       id="linearGradient3428"
       gradientUnits="userSpaceOnUse"
       gradientTransform="translate(64.642857,-45)"
       x1="281.89731"
       y1="322.36218"
       x2="465.95981"
       y2="322.36218" />
    <filter
       inkscape:collect="always"
       id="filter3458"
       x="-0.067956807"
       width="1.1359136"
       y="-0.26414531"
       height="1.5282906">
      <feGaussianBlur
         inkscape:collect="always"
         stdDeviation="9.1333094"
         id="feGaussianBlur3460" />
    </filter>
    <filter
       inkscape:collect="always"
       id="filter3462"
       x="-0.067956807"
       width="1.1359136"
       y="-0.26414531"
       height="1.5282906">
      <feGaussianBlur
         inkscape:collect="always"
         stdDeviation="9.1333094"
         id="feGaussianBlur3464" />
    </filter>
    <filter
       inkscape:collect="always"
       id="filter3466"
       x="-0.069683601"
       width="1.1393672"
       y="-0.35523935"
       height="1.7104787">
      <feGaussianBlur
         inkscape:collect="always"
         stdDeviation="9.1333094"
         id="feGaussianBlur3468" />
    </filter>
    <filter
       inkscape:collect="always"
       id="filter3470"
       x="-0.069683601"
       width="1.1393672"
       y="-0.35523935"
       height="1.7104787">
      <feGaussianBlur
         inkscape:collect="always"
         stdDeviation="9.1333094"
         id="feGaussianBlur3472" />
    </filter>
    <filter
       inkscape:collect="always"
       id="filter3474"
       x="-0.063705672"
       width="1.1274113"
       y="-0.34212092"
       height="1.6842418">
      <feGaussianBlur
         inkscape:collect="always"
         stdDeviation="9.1333094"
         id="feGaussianBlur3476" />
    </filter>
    <filter
       inkscape:collect="always"
       id="filter3478"
       x="-0.063705672"
       width="1.1274113"
       y="-0.34212092"
       height="1.6842418">
      <feGaussianBlur
         inkscape:collect="always"
         stdDeviation="9.1333094"
         id="feGaussianBlur3480" />
    </filter>
  </defs>
  <sodipodi:namedview
     id="base"
     pagecolor="#ffffff"
     bordercolor="#666666"
     borderopacity="1.0"
     gridtolerance="10000"
     guidetolerance="10"
     objecttolerance="10"
     inkscape:pageopacity="0.0"
     inkscape:pageshadow="2"
     inkscape:zoom="0.98994949"
     inkscape:cx="432.68132"
     inkscape:cy="619.70258"
     inkscape:document-units="px"
     inkscape:current-layer="layer1"
     showgrid="false"
     inkscape:window-width="1270"
     inkscape:window-height="726"
     inkscape:window-x="0"
     inkscape:window-y="25" />
  <metadata
     id="metadata7">
    <rdf:RDF>
      <cc:Work
         rdf:about="">
        <dc:format>image/svg+xml</dc:format>
        <dc:type
           rdf:resource="http://purl.org/dc/dcmitype/StillImage" />
      </cc:Work>
    </rdf:RDF>
  </metadata>
  <g
     inkscape:label="Layer 1"
     inkscape:groupmode="layer"
     id="layer1">
    <path
       style="fill:#000000;fill-opacity:1;stroke:#b3b7ba;stroke-width:20;stroke-linecap:round;stroke-miterlimit:4;stroke-dasharray:none;stroke-opacity:1;filter:url(#filter3462)"
       id="path3297"
       d="M 388.65931,279.77947 C 385.06944,275.71334 380.73444,272.39041 376.41886,269.14339 C 364.94006,261.23532 351.87687,256.12857 338.37633,252.86565 C 335.10356,252.07466 331.78341,251.49441 328.48695,250.80879 C 319.6254,249.30214 310.52528,248.41426 301.65985,250.50043 C 299.31139,251.05306 297.09382,252.06094 294.82055,252.86898 C 294.2073,253.08696 297.0487,251.73507 296.67917,252.27083 C 295.44184,254.06476 293.59261,255.34814 292.04934,256.88679 C 290.79132,258.79364 289.40047,260.61922 288.27529,262.60735 C 286.11568,266.42325 284.29123,271.17996 282.74955,275.26881 C 280.97254,279.98183 279.39809,284.77101 277.67876,289.5053 C 275.36383,294.91464 276.12137,294.49571 266.61656,298.08914 C 265.79825,298.39851 265.077,297.22265 264.43905,296.62401 C 263.47465,295.71903 262.68642,294.64203 261.85077,293.61698 C 260.18365,291.57201 255.84172,285.87358 254.42929,284.03201 C 247.10777,274.84196 238.60802,266.58482 228.49301,260.50616 C 221.13788,256.08605 219.14427,255.66345 211.21874,252.50781 C 202.34891,249.53828 193.14186,248.36789 183.81131,248.65507 C 177.32203,248.85479 172.05302,249.74205 165.63574,250.63031 C 162.59065,251.05179 159.54637,251.47908 156.50169,251.90346 C 146.79548,253.3302 137.06662,253.05325 127.48817,250.8713 C 116.28715,248.31973 105.69488,243.70324 95.150082,239.28357 L 101.3335,235.15569 C 104.88049,236.64244 108.38651,238.23096 111.97446,239.61592 C 119.02,242.33552 126.44935,244.85871 133.86712,246.3829 C 143.50501,248.36328 153.26758,248.48989 162.98554,247.05399 C 172.05706,245.78822 181.21211,244.0915 190.3937,243.89668 C 199.76065,243.69793 208.99926,245.01081 217.87418,248.05079 C 225.84905,251.2889 227.81726,251.72568 235.2342,256.19563 C 245.45024,262.3525 254.1933,270.54717 261.9951,279.50399 C 264.47851,282.4113 267.31041,285.86762 270.05686,288.59768 C 270.94791,289.48341 271.84106,290.38881 272.88093,291.09391 C 273.37779,291.43081 275.02307,291.2567 274.58735,291.66963 C 272.57855,293.57332 270.20494,295.24891 267.57789,296.11948 C 266.64271,296.42939 268.5204,294.38914 268.99166,293.52397 C 271.075,288.71813 272.91593,283.83715 274.8034,278.9512 C 276.46083,274.66073 278.06602,270.20123 280.25197,266.13592 C 281.33975,264.11291 282.67291,262.23176 283.88338,260.27968 C 285.41587,258.67469 286.67616,256.75606 288.48086,255.4647 C 294.99735,250.80182 300.75026,247.01472 308.4028,245.46988 C 317.21189,243.69157 326.18729,244.77676 334.92386,246.33142 C 338.23743,247.02476 341.57251,247.62223 344.86457,248.41144 C 358.66116,251.71892 372.15525,256.64318 384.22818,264.17592 C 388.88725,267.30498 393.48626,270.52271 397.70706,274.23501 L 388.65931,279.77947 z"
       transform="matrix(1,0,0,-1,45.714286,573.29579)" />
    <path
       style="fill:#000000;fill-opacity:1;stroke:#b3b7ba;stroke-width:20;stroke-linecap:round;stroke-miterlimit:4;stroke-dasharray:none;stroke-opacity:1;filter:url(#filter3458)"
       id="path3267"
       d="M 437.36266,284.87809 C 433.77279,280.81196 429.43779,277.48903 425.12221,274.24201 C 413.64341,266.33394 400.58022,261.22719 387.07968,257.96427 C 383.80691,257.17328 380.48676,256.59303 377.1903,255.90741 C 368.32875,254.40076 359.22863,253.51288 350.3632,255.59905 C 348.01474,256.15168 345.79717,257.15956 343.5239,257.9676 C 342.91065,258.18558 345.75205,256.83369 345.38252,257.36945 C 344.14519,259.16338 342.29596,260.44676 340.75269,261.98541 C 339.49467,263.89226 338.10382,265.71784 336.97864,267.70597 C 334.81903,271.52187 332.99458,276.27858 331.4529,280.36743 C 329.67589,285.08045 328.10144,289.86963 326.38211,294.60392 C 324.06718,300.01326 324.82472,299.59433 315.31991,303.18776 C 314.5016,303.49713 313.78035,302.32127 313.1424,301.72263 C 312.178,300.81765 311.38977,299.74065 310.55412,298.7156 C 308.887,296.67063 304.54507,290.9722 303.13264,289.13063 C 295.81112,279.94058 287.31137,271.68344 277.19636,265.60478 C 269.84123,261.18467 267.84762,260.76207 259.92209,257.60643 C 251.05226,254.6369 241.84521,253.46651 232.51466,253.75369 C 226.02538,253.95341 220.75637,254.84067 214.33909,255.72893 C 211.294,256.15041 208.24972,256.5777 205.20504,257.00208 C 195.49883,258.42882 185.76997,258.15187 176.19152,255.96992 C 164.9905,253.41835 154.39823,248.80186 143.85343,244.38219 L 150.03685,240.25431 C 153.58384,241.74106 157.08986,243.32958 160.67781,244.71454 C 167.72335,247.43414 175.1527,249.95733 182.57047,251.48152 C 192.20836,253.4619 201.97093,253.58851 211.68889,252.15261 C 220.76041,250.88684 229.91546,249.19012 239.09705,248.9953 C 248.464,248.79655 257.70261,250.10943 266.57753,253.14941 C 274.5524,256.38752 276.52061,256.8243 283.93755,261.29425 C 294.15359,267.45112 302.89665,275.64579 310.69845,284.60261 C 313.18186,287.50992 316.01376,290.96624 318.76021,293.6963 C 319.65126,294.58203 320.54441,295.48743 321.58428,296.19253 C 322.08114,296.52943 323.72642,296.35532 323.2907,296.76825 C 321.2819,298.67194 318.90829,300.34753 316.28124,301.2181 C 315.34606,301.52801 317.22375,299.48776 317.69501,298.62259 C 319.77835,293.81675 321.61928,288.93577 323.50675,284.04982 C 325.16418,279.75935 326.76937,275.29985 328.95532,271.23454 C 330.0431,269.21153 331.37626,267.33038 332.58673,265.3783 C 334.11922,263.77331 335.37951,261.85468 337.18421,260.56332 C 343.7007,255.90044 349.45361,252.11334 357.10615,250.5685 C 365.91524,248.79019 374.89064,249.87538 383.62721,251.43004 C 386.94078,252.12338 390.27586,252.72085 393.56792,253.51006 C 407.36451,256.81754 420.8586,261.7418 432.93153,269.27454 C 437.5906,272.4036 442.18961,275.62133 446.41041,279.33363 L 437.36266,284.87809 z" />
    <g
       id="g3299">
      <g
         transform="translate(98.571426,11.785714)"
         id="g3190">
        <path
           style="fill:url(#radialGradient3195);fill-opacity:1;stroke:#c1bd00;stroke-width:5;stroke-miterlimit:4;stroke-dasharray:none;stroke-opacity:1"
           d="M 369.75,230.65625 L 369.75,230.9375 C 369.32123,230.88626 368.90366,230.84375 368.46875,230.84375 C 356.19669,230.84375 346.21876,251.54735 346.21875,277.0625 C 346.21875,302.57766 356.1967,323.28126 368.46875,323.28125 C 368.85225,323.28125 369.215,323.25871 369.59375,323.21875 L 369.59375,323.75 C 369.65742,323.75002 369.68631,323.74999 369.75,323.75 C 458.36054,323.75 530.28125,302.8844 530.28125,277.1875 C 530.28125,251.49059 458.36053,230.65625 369.75,230.65625 z"
           id="path2387" />
        <path
           style="fill:url(#radialGradient3197);fill-opacity:1;stroke:none;stroke-width:5;stroke-miterlimit:4;stroke-dasharray:none;stroke-opacity:1"
           d="M 370.07143,230.8153 L 370.07143,231.09655 C 369.64266,231.04531 369.22509,231.0028 368.79018,231.0028 C 356.51812,231.0028 346.54019,251.7064 346.54018,277.22155 C 346.54018,302.73671 356.51813,323.44031 368.79018,323.4403 C 369.17368,323.4403 369.53643,323.41776 369.91518,323.3778 L 369.91518,323.90905 C 369.97885,323.90907 370.00774,323.90904 370.07143,323.90905 C 458.68197,323.90905 530.60268,303.04345 530.60268,277.34655 C 530.60268,251.64964 458.68196,230.8153 370.07143,230.8153 z"
           id="path3186" />
        <path
           style="fill:url(#linearGradient3199);fill-opacity:1;stroke:none;stroke-width:5;stroke-miterlimit:4;stroke-dasharray:none;stroke-opacity:1"
           d="M 370.07142,230.8153 L 370.07142,231.09655 C 369.64265,231.04531 369.22508,231.0028 368.79017,231.0028 C 356.51811,231.0028 346.54018,251.7064 346.54017,277.22155 C 346.54017,302.73671 356.51812,323.44031 368.79017,323.4403 C 369.17367,323.4403 369.53642,323.41776 369.91517,323.3778 L 369.91517,323.90905 C 369.97884,323.90907 370.00773,323.90904 370.07142,323.90905 C 458.68196,323.90905 530.60267,303.04345 530.60267,277.34655 C 530.60267,251.64964 458.68195,230.8153 370.07142,230.8153 z"
           id="path3172" />
      </g>
      <path
         id="path3205"
         d="M 295.71429,260.21932 C 295.71429,260.21932 415.71429,241.6479 460,242.36218 C 504.28571,243.07647 630,252.36218 630,287.36218 C 630,322.36218 515.71429,343.07647 465,337.36218 C 414.28571,331.6479 293.57143,313.79075 293.57143,313.79075"
         style="fill:none;fill-rule:evenodd;stroke:#e5c900;stroke-width:10;stroke-linecap:butt;stroke-linejoin:miter;stroke-opacity:1;stroke-miterlimit:4;stroke-dasharray:none;filter:url(#filter3239)" />
    </g>
    <path
       style="fill:#000000;fill-opacity:1;stroke:#b3b7ba;stroke-width:20;stroke-linecap:round;stroke-miterlimit:4;stroke-dasharray:none;stroke-opacity:1;filter:url(#filter3466)"
       id="path3404"
       d="M 168.39542,397.43125 C 172.15484,397.57428 175.91838,397.55248 179.67987,397.55374 C 183.41727,397.61616 186.28197,397.71115 189.83905,396.46505 C 192.85444,395.63892 195.6608,394.24935 198.57906,393.16322 C 201.09266,392.2277 202.90323,391.74572 205.53116,390.96545 C 216.19674,387.83278 226.82584,384.58136 237.38875,381.1167 C 242.76896,379.71274 248.01982,377.20734 253.59289,376.55571 C 255.37644,376.34717 256.55809,376.55644 258.29528,376.73599 C 262.8529,378.05952 266.72847,380.94841 270.83494,383.23776 C 276.66709,385.92841 283.05828,387.10462 289.33973,388.24916 C 294.83344,388.95828 299.95129,390.932 305.12403,392.78123 C 310.07959,394.54627 315.29928,395.11171 320.514,395.42762 C 325.04315,395.49647 329.49694,394.74025 333.97533,394.21443 C 338.79424,393.44202 343.31428,391.38713 347.83194,389.60898 C 352.44528,387.79085 357.09055,386.4215 362.07114,386.48861 C 367.78925,387.83926 372.47308,391.62739 377.19799,394.9306 C 383.92518,399.10251 391.01109,402.8999 398.56325,405.36055 C 400.25423,405.9115 401.98453,406.33354 403.69517,406.82004 C 413.21103,409.19985 423.03226,409.65022 432.79311,409.86218 C 439.04975,410.45046 444.93892,408.71087 450.86721,407.00207 L 440.12129,415.27932 C 434.00603,417.03751 427.93564,418.69545 421.49372,418.0187 C 411.74071,417.62933 401.92514,417.04127 392.44928,414.51555 C 390.71682,414.00413 388.96586,413.55163 387.2519,412.98128 C 379.5623,410.42243 372.27414,406.68584 365.35493,402.50462 C 360.69004,399.47014 355.96193,395.83923 350.31037,395.05895 C 345.49612,395.26866 340.97637,396.70621 336.5198,398.49479 C 331.9151,400.31005 327.28687,402.32046 322.3279,402.89682 C 317.82574,403.47709 313.30591,404.06005 308.75353,403.84722 C 303.4814,403.42927 298.22648,402.65869 293.24219,400.80666 C 288.13677,398.98887 283.00608,397.32533 277.64456,396.41486 C 271.25237,395.14816 264.75096,393.87603 258.82429,391.07455 C 254.81818,388.90929 250.94471,386.17561 246.44107,385.19352 C 244.71345,385.0763 243.96847,384.94461 242.19518,385.18256 C 236.88446,385.89517 231.83502,388.0164 226.69786,389.40915 C 215.98236,392.85403 205.21852,396.14338 194.48187,399.52066 C 188.99286,401.34796 183.68788,403.61997 178.20251,405.45103 C 174.81922,406.31478 171.39612,406.1696 167.92502,406.09415 C 164.05107,406.09546 160.17542,406.07808 156.30335,406.21665 L 168.39542,397.43125 z" />
    <path
       style="fill:#000000;fill-opacity:1;stroke:#b3b7ba;stroke-width:20;stroke-linecap:round;stroke-miterlimit:4;stroke-dasharray:none;stroke-opacity:1;filter:url(#filter3470)"
       id="path3406"
       d="M 168.86605,438.07929 C 172.62547,437.93626 176.38901,437.95806 180.1505,437.9568 C 183.8879,437.89438 186.7526,437.79939 190.30968,439.04549 C 193.32507,439.87162 196.13143,441.26119 199.04969,442.34732 C 201.56329,443.28284 203.37386,443.76482 206.00179,444.54509 C 216.66737,447.67776 227.29647,450.92918 237.85938,454.39384 C 243.23959,455.7978 248.49045,458.3032 254.06352,458.95483 C 255.84707,459.16337 257.02872,458.9541 258.76591,458.77455 C 263.32353,457.45102 267.1991,454.56213 271.30557,452.27278 C 277.13772,449.58213 283.52891,448.40592 289.81036,447.26138 C 295.30407,446.55226 300.42192,444.57854 305.59466,442.72931 C 310.55022,440.96427 315.76991,440.39883 320.98463,440.08292 C 325.51378,440.01407 329.96757,440.77029 334.44596,441.29611 C 339.26487,442.06852 343.78491,444.12341 348.30257,445.90156 C 352.91591,447.71969 357.56118,449.08904 362.54177,449.02193 C 368.25988,447.67128 372.94371,443.88315 377.66862,440.57994 C 384.39581,436.40803 391.48172,432.61064 399.03388,430.14999 C 400.72486,429.59904 402.45516,429.177 404.1658,428.6905 C 413.68166,426.31069 423.50289,425.86032 433.26374,425.64836 C 439.52038,425.06008 445.40955,426.79967 451.33784,428.50847 L 440.59192,420.23122 C 434.47666,418.47303 428.40627,416.81509 421.96435,417.49184 C 412.21134,417.88121 402.39577,418.46927 392.91991,420.99499 C 391.18745,421.50641 389.43649,421.95891 387.72253,422.52926 C 380.03293,425.08811 372.74477,428.8247 365.82556,433.00592 C 361.16067,436.0404 356.43256,439.67131 350.781,440.45159 C 345.96675,440.24188 341.447,438.80433 336.99043,437.01575 C 332.38573,435.20049 327.7575,433.19008 322.79853,432.61372 C 318.29637,432.03345 313.77654,431.45049 309.22416,431.66332 C 303.95203,432.08127 298.69711,432.85185 293.71282,434.70388 C 288.6074,436.52167 283.47671,438.18521 278.11519,439.09568 C 271.723,440.36238 265.22159,441.63451 259.29492,444.43599 C 255.28881,446.60125 251.41534,449.33493 246.9117,450.31702 C 245.18408,450.43424 244.4391,450.56593 242.66581,450.32798 C 237.35509,449.61537 232.30565,447.49414 227.16849,446.10139 C 216.45299,442.65651 205.68915,439.36716 194.9525,435.98988 C 189.46349,434.16258 184.15851,431.89057 178.67314,430.05951 C 175.28985,429.19576 171.86675,429.34094 168.39565,429.41639 C 164.5217,429.41508 160.64605,429.43246 156.77398,429.29389 L 168.86605,438.07929 z" />
    <g
       id="g3364"
       transform="translate(-0.3201451,130.69653)">
      <g
         transform="translate(98.571426,11.785714)"
         id="g3366">
        <path
           style="fill:url(#radialGradient3376);fill-opacity:1;stroke:#c1bd00;stroke-width:5;stroke-miterlimit:4;stroke-dasharray:none;stroke-opacity:1"
           d="M 369.75,230.65625 L 369.75,230.9375 C 369.32123,230.88626 368.90366,230.84375 368.46875,230.84375 C 356.19669,230.84375 346.21876,251.54735 346.21875,277.0625 C 346.21875,302.57766 356.1967,323.28126 368.46875,323.28125 C 368.85225,323.28125 369.215,323.25871 369.59375,323.21875 L 369.59375,323.75 C 369.65742,323.75002 369.68631,323.74999 369.75,323.75 C 458.36054,323.75 530.28125,302.8844 530.28125,277.1875 C 530.28125,251.49059 458.36053,230.65625 369.75,230.65625 z"
           id="path3368" />
        <path
           style="fill:url(#radialGradient3378);fill-opacity:1;stroke:none;stroke-width:5;stroke-miterlimit:4;stroke-dasharray:none;stroke-opacity:1"
           d="M 370.07143,230.8153 L 370.07143,231.09655 C 369.64266,231.04531 369.22509,231.0028 368.79018,231.0028 C 356.51812,231.0028 346.54019,251.7064 346.54018,277.22155 C 346.54018,302.73671 356.51813,323.44031 368.79018,323.4403 C 369.17368,323.4403 369.53643,323.41776 369.91518,323.3778 L 369.91518,323.90905 C 369.97885,323.90907 370.00774,323.90904 370.07143,323.90905 C 458.68197,323.90905 530.60268,303.04345 530.60268,277.34655 C 530.60268,251.64964 458.68196,230.8153 370.07143,230.8153 z"
           id="path3370" />
        <path
           style="fill:url(#linearGradient3380);fill-opacity:1;stroke:none;stroke-width:5;stroke-miterlimit:4;stroke-dasharray:none;stroke-opacity:1"
           d="M 370.07142,230.8153 L 370.07142,231.09655 C 369.64265,231.04531 369.22508,231.0028 368.79017,231.0028 C 356.51811,231.0028 346.54018,251.7064 346.54017,277.22155 C 346.54017,302.73671 356.51812,323.44031 368.79017,323.4403 C 369.17367,323.4403 369.53642,323.41776 369.91517,323.3778 L 369.91517,323.90905 C 369.97884,323.90907 370.00773,323.90904 370.07142,323.90905 C 458.68196,323.90905 530.60267,303.04345 530.60267,277.34655 C 530.60267,251.64964 458.68195,230.8153 370.07142,230.8153 z"
           id="path3372" />
      </g>
      <path
         id="path3374"
         d="M 295.71429,260.21932 C 295.71429,260.21932 415.71429,241.6479 460,242.36218 C 504.28571,243.07647 630,252.36218 630,287.36218 C 630,322.36218 515.71429,343.07647 465,337.36218 C 414.28571,331.6479 293.57143,313.79075 293.57143,313.79075"
         style="fill:none;fill-rule:evenodd;stroke:#e5c900;stroke-width:10;stroke-linecap:butt;stroke-linejoin:miter;stroke-miterlimit:4;stroke-dasharray:none;stroke-opacity:1;filter:url(#filter3239)" />
    </g>
    <path
       style="fill:#000000;fill-opacity:1;stroke:#b3b7ba;stroke-width:20;stroke-linecap:round;stroke-miterlimit:4;stroke-dasharray:none;stroke-opacity:1;filter:url(#filter3474)"
       id="path3430"
       d="M 167.65676,501.32074 C 168.39703,501.30836 169.13882,501.33261 169.87757,501.28359 C 174.25614,500.99305 178.61533,500.43985 182.99912,500.17182 C 188.46788,499.83745 190.51908,499.81198 196.15024,499.62576 C 213.06794,498.92018 229.9779,499.34318 246.87978,500.17228 C 257.70152,501.36608 268.49084,503.33162 278.86117,506.70265 C 283.78604,508.30356 287.44655,509.85042 292.23027,511.75837 C 299.82316,515.19131 307.33512,518.96379 315.30361,521.48024 C 320.24206,523.0398 321.58624,523.16477 326.67042,524.18255 C 339.17459,526.43511 351.83646,524.95503 364.33782,523.56621 C 376.18736,521.68421 388.0823,520.10501 400.08013,519.70701 C 411.23492,519.34518 422.10072,521.84873 432.67467,525.13691 C 434.39115,525.68884 436.11196,526.22748 437.82412,526.79268 C 442.11474,528.20908 443.63955,528.85256 447.96014,530.06805 C 452.69418,531.39985 457.49763,532.38509 462.32693,533.28863 C 468.11202,534.28853 473.96783,534.71904 479.82818,534.91413 L 468.09655,543.33941 C 462.36635,542.89372 456.64705,542.27075 450.99706,541.19058 C 446.17797,540.20745 441.38473,539.15528 436.66293,537.76299 C 433.36032,536.78917 429.83069,535.52198 426.56293,534.45297 C 424.85337,533.89371 423.13531,533.36078 421.42149,532.81469 C 410.92766,529.68083 400.20934,527.20047 389.16787,527.69934 C 377.25267,528.2185 365.43979,529.72238 353.65186,531.50756 C 341.02387,532.83997 328.2166,534.2993 315.61493,531.87866 C 310.3445,530.77626 309.23407,530.70191 304.13736,529.01282 C 296.23806,526.39493 288.81476,522.5411 281.26185,519.10035 C 276.45598,517.12794 273.11841,515.66264 268.15204,514.02296 C 257.93091,510.64838 247.2729,508.7127 236.58835,507.57139 C 219.58557,506.70996 202.56915,506.43278 185.55975,507.39242 C 175.58557,507.94767 165.63491,508.71576 155.74669,510.17691 L 167.65676,501.32074 z" />
    <path
       style="fill:#000000;fill-opacity:1;stroke:#b3b7ba;stroke-width:20;stroke-linecap:round;stroke-miterlimit:4;stroke-dasharray:none;stroke-opacity:1;filter:url(#filter3478)"
       id="path3432"
       d="M 169.07752,588.48241 C 169.81779,588.49479 170.55958,588.47054 171.29833,588.51956 C 175.6769,588.8101 180.03609,589.3633 184.41988,589.63133 C 189.88864,589.9657 191.93984,589.99117 197.571,590.17739 C 214.4887,590.88297 231.39866,590.45997 248.30054,589.63087 C 259.12228,588.43707 269.9116,586.47153 280.28193,583.1005 C 285.2068,581.49959 288.86731,579.95273 293.65103,578.04478 C 301.24392,574.61184 308.75588,570.83936 316.72437,568.32291 C 321.66282,566.76335 323.007,566.63838 328.09118,565.6206 C 340.59535,563.36804 353.25722,564.84812 365.75858,566.23694 C 377.60812,568.11894 389.50306,569.69814 401.50089,570.09614 C 412.65568,570.45797 423.52148,567.95442 434.09543,564.66624 C 435.81191,564.11431 437.53272,563.57567 439.24488,563.01047 C 443.5355,561.59407 445.06031,560.95059 449.3809,559.7351 C 454.11494,558.4033 458.91839,557.41806 463.74769,556.51452 C 469.53278,555.51462 475.38859,555.08411 481.24894,554.88902 L 469.51731,546.46374 C 463.78711,546.90943 458.06781,547.5324 452.41782,548.61257 C 447.59873,549.5957 442.80549,550.64787 438.08369,552.04016 C 434.78108,553.01398 431.25145,554.28117 427.98369,555.35018 C 426.27413,555.90944 424.55607,556.44237 422.84225,556.98846 C 412.34842,560.12232 401.6301,562.60268 390.58863,562.10381 C 378.67343,561.58465 366.86055,560.08077 355.07262,558.29559 C 342.44463,556.96318 329.63736,555.50385 317.03569,557.92449 C 311.76526,559.02689 310.65483,559.10124 305.55812,560.79033 C 297.65882,563.40822 290.23552,567.26205 282.68261,570.7028 C 277.87674,572.67521 274.53917,574.14051 269.5728,575.78019 C 259.35167,579.15477 248.69366,581.09045 238.00911,582.23176 C 221.00633,583.09319 203.98991,583.37037 186.98051,582.41073 C 177.00633,581.85548 167.05567,581.08739 157.16745,579.62624 L 169.07752,588.48241 z" />
    <g
       id="g3412"
       transform="translate(-0.8928703,259.76772)">
      <g
         transform="translate(98.571426,11.785714)"
         id="g3414">
        <path
           style="fill:url(#radialGradient3424);fill-opacity:1;stroke:#c1bd00;stroke-width:5;stroke-miterlimit:4;stroke-dasharray:none;stroke-opacity:1"
           d="M 369.75,230.65625 L 369.75,230.9375 C 369.32123,230.88626 368.90366,230.84375 368.46875,230.84375 C 356.19669,230.84375 346.21876,251.54735 346.21875,277.0625 C 346.21875,302.57766 356.1967,323.28126 368.46875,323.28125 C 368.85225,323.28125 369.215,323.25871 369.59375,323.21875 L 369.59375,323.75 C 369.65742,323.75002 369.68631,323.74999 369.75,323.75 C 458.36054,323.75 530.28125,302.8844 530.28125,277.1875 C 530.28125,251.49059 458.36053,230.65625 369.75,230.65625 z"
           id="path3416" />
        <path
           style="fill:url(#radialGradient3426);fill-opacity:1;stroke:none;stroke-width:5;stroke-miterlimit:4;stroke-dasharray:none;stroke-opacity:1"
           d="M 370.07143,230.8153 L 370.07143,231.09655 C 369.64266,231.04531 369.22509,231.0028 368.79018,231.0028 C 356.51812,231.0028 346.54019,251.7064 346.54018,277.22155 C 346.54018,302.73671 356.51813,323.44031 368.79018,323.4403 C 369.17368,323.4403 369.53643,323.41776 369.91518,323.3778 L 369.91518,323.90905 C 369.97885,323.90907 370.00774,323.90904 370.07143,323.90905 C 458.68197,323.90905 530.60268,303.04345 530.60268,277.34655 C 530.60268,251.64964 458.68196,230.8153 370.07143,230.8153 z"
           id="path3418" />
        <path
           style="fill:url(#linearGradient3428);fill-opacity:1;stroke:none;stroke-width:5;stroke-miterlimit:4;stroke-dasharray:none;stroke-opacity:1"
           d="M 370.07142,230.8153 L 370.07142,231.09655 C 369.64265,231.04531 369.22508,231.0028 368.79017,231.0028 C 356.51811,231.0028 346.54018,251.7064 346.54017,277.22155 C 346.54017,302.73671 356.51812,323.44031 368.79017,323.4403 C 369.17367,323.4403 369.53642,323.41776 369.91517,323.3778 L 369.91517,323.90905 C 369.97884,323.90907 370.00773,323.90904 370.07142,323.90905 C 458.68196,323.90905 530.60267,303.04345 530.60267,277.34655 C 530.60267,251.64964 458.68195,230.8153 370.07142,230.8153 z"
           id="path3420" />
      </g>
      <path
         id="path3422"
         d="M 295.71429,260.21932 C 295.71429,260.21932 415.71429,241.6479 460,242.36218 C 504.28571,243.07647 630,252.36218 630,287.36218 C 630,322.36218 515.71429,343.07647 465,337.36218 C 414.28571,331.6479 293.57143,313.79075 293.57143,313.79075"
         style="fill:none;fill-rule:evenodd;stroke:#e5c900;stroke-width:10;stroke-linecap:butt;stroke-linejoin:miter;stroke-miterlimit:4;stroke-dasharray:none;stroke-opacity:1;filter:url(#filter3239)" />
    </g>
  </g>
</svg>
