<?xml version="1.0" encoding="UTF-8" standalone="no"?>
<!-- Created with Inkscape (http://www.inkscape.org/) -->
<svg
   xmlns:dc="http://purl.org/dc/elements/1.1/"
   xmlns:cc="http://creativecommons.org/ns#"
   xmlns:rdf="http://www.w3.org/1999/02/22-rdf-syntax-ns#"
   xmlns:svg="http://www.w3.org/2000/svg"
   xmlns="http://www.w3.org/2000/svg"
   xmlns:xlink="http://www.w3.org/1999/xlink"
   xmlns:sodipodi="http://sodipodi.sourceforge.net/DTD/sodipodi-0.dtd"
   xmlns:inkscape="http://www.inkscape.org/namespaces/inkscape"
   width="744.09448819"
   height="1052.3622047"
   id="svg2"
   sodipodi:version="0.32"
   inkscape:version="0.46"
   sodipodi:docname="feu.svg"
   inkscape:output_extension="org.inkscape.output.svg.inkscape">
  <defs
     id="defs4">
    <pattern
       inkscape:collect="always"
       xlink:href="#Strips1_1"
       id="pattern4729"
       patternTransform="matrix(10,0,0,10,0,-1.5152288)" />
    <pattern
       inkscape:collect="always"
       xlink:href="#Strips1_1"
       id="pattern4727"
       patternTransform="matrix(10,0,0,10,-117.68277,-3.5355339)" />
    <pattern
       inkscape:collect="always"
       xlink:href="#Strips1_1"
       id="pattern4725"
       patternTransform="matrix(10,0,0,10,-89.903576,-5.0507627)" />
    <pattern
       inkscape:collect="always"
       xlink:href="#Strips1_1"
       id="pattern4723"
       patternTransform="matrix(10,0,0,10,-65.154839,-6.0609153)" />
    <pattern
       inkscape:collect="always"
       xlink:href="#Strips1_1"
       id="pattern4721"
       patternTransform="matrix(10,0,0,10,-39.901025,-3.5355339)" />
    <pattern
       inkscape:collect="always"
       xlink:href="#Strips1_1"
       id="pattern4719"
       patternTransform="matrix(10,0,0,10,-16.667517,-1.5152288)" />
    <pattern
       inkscape:stockid="Stripes 1:1"
       id="Strips1_1"
       patternTransform="translate(0,0) scale(10,10)"
       height="1"
       width="2"
       patternUnits="userSpaceOnUse"
       inkscape:collect="always">
      <rect
         id="rect3931"
         height="2"
         width="1"
         y="-0.5"
         x="0"
         style="fill:black;stroke:none" />
    </pattern>
    <linearGradient
       id="linearGradient3181">
      <stop
         style="stop-color:#000000;stop-opacity:1;"
         offset="0"
         id="stop3183" />
      <stop
         style="stop-color:#000000;stop-opacity:0;"
         offset="1"
         id="stop3185" />
    </linearGradient>
    <linearGradient
       id="linearGradient4701">
      <stop
         style="stop-color:#fc8c0e;stop-opacity:1;"
         offset="0"
         id="stop4703" />
      <stop
         style="stop-color:#f6e949;stop-opacity:0.46323529;"
         offset="1"
         id="stop4705" />
    </linearGradient>
    <inkscape:perspective
       sodipodi:type="inkscape:persp3d"
       inkscape:vp_x="0 : 526.18109 : 1"
       inkscape:vp_y="0 : 1000 : 0"
       inkscape:vp_z="744.09448 : 526.18109 : 1"
       inkscape:persp3d-origin="372.04724 : 350.78739 : 1"
       id="perspective10" />
    <radialGradient
       inkscape:collect="always"
       xlink:href="#linearGradient4701"
       id="radialGradient4707"
       cx="231.94519"
       cy="170.60815"
       fx="231.94519"
       fy="170.60815"
       r="16.777618"
       gradientTransform="matrix(1,0,0,2.9434008,77.276671,-333.58034)"
       gradientUnits="userSpaceOnUse" />
    <radialGradient
       inkscape:collect="always"
       xlink:href="#linearGradient4701"
       id="radialGradient4709"
       cx="520.27869"
       cy="172.80266"
       fx="520.27869"
       fy="172.80266"
       r="18.075607"
       gradientTransform="matrix(1,0,0,2.7735982,-118.69292,-310.01802)"
       gradientUnits="userSpaceOnUse" />
    <radialGradient
       inkscape:collect="always"
       xlink:href="#linearGradient4701"
       id="radialGradient4711"
       cx="442.19678"
       cy="175.66747"
       fx="442.19678"
       fy="175.66747"
       r="17.422571"
       gradientTransform="matrix(1,0,0,2.7179916,-87.883271,-306.34093)"
       gradientUnits="userSpaceOnUse" />
    <radialGradient
       inkscape:collect="always"
       xlink:href="#linearGradient4701"
       id="radialGradient4713"
       cx="375.86575"
       cy="172.15422"
       fx="375.86575"
       fy="172.15422"
       r="21.297131"
       gradientTransform="matrix(1,0,0,2.3744381,-114.14724,-240.15085)"
       gradientUnits="userSpaceOnUse" />
    <radialGradient
       inkscape:collect="always"
       xlink:href="#linearGradient4701"
       id="radialGradient4715"
       cx="303.87762"
       cy="167.99806"
       fx="303.87762"
       fy="167.99806"
       r="20.535366"
       gradientTransform="matrix(1,0,0,2.6056793,-91.418805,-271.26624)"
       gradientUnits="userSpaceOnUse" />
    <radialGradient
       inkscape:collect="always"
       xlink:href="#linearGradient4701"
       id="radialGradient4717"
       cx="166.30717"
       cy="170.93306"
       fx="166.30717"
       fy="170.93306"
       r="20.565962"
       gradientTransform="matrix(1,0,0,2.5082089,0,-259.31799)"
       gradientUnits="userSpaceOnUse" />
    <filter
       inkscape:collect="always"
       id="filter4695"
       x="-0.13525983"
       width="1.2705197"
       y="-0.045953589"
       height="1.0919072">
      <feGaussianBlur
         inkscape:collect="always"
         stdDeviation="1.8911149"
         id="feGaussianBlur4697" />
    </filter>
    <filter
       inkscape:collect="always"
       id="filter4699"
       x="-0.12554698"
       width="1.251094"
       y="-0.045265022"
       height="1.09053">
      <feGaussianBlur
         inkscape:collect="always"
         stdDeviation="1.8911149"
         id="feGaussianBlur4701" />
    </filter>
    <filter
       inkscape:collect="always"
       id="filter4703"
       x="-0.13025275"
       width="1.2605055"
       y="-0.047922425"
       height="1.0958448">
      <feGaussianBlur
         inkscape:collect="always"
         stdDeviation="1.8911149"
         id="feGaussianBlur4705" />
    </filter>
    <filter
       inkscape:collect="always"
       id="filter4707"
       x="-0.10655604"
       width="1.2131121"
       y="-0.044876317"
       height="1.0897526">
      <feGaussianBlur
         inkscape:collect="always"
         stdDeviation="1.8911149"
         id="feGaussianBlur4709" />
    </filter>
    <filter
       inkscape:collect="always"
       id="filter4711"
       x="-0.11050876"
       width="1.2210175"
       y="-0.042410727"
       height="1.0848215">
      <feGaussianBlur
         inkscape:collect="always"
         stdDeviation="1.8911149"
         id="feGaussianBlur4713" />
    </filter>
    <filter
       inkscape:collect="always"
       id="filter4715"
       x="-0.11034436"
       width="1.2206887"
       y="-0.043993291"
       height="1.0879866">
      <feGaussianBlur
         inkscape:collect="always"
         stdDeviation="1.8911149"
         id="feGaussianBlur4717" />
    </filter>
  </defs>
  <sodipodi:namedview
     id="base"
     pagecolor="#ffffff"
     bordercolor="#666666"
     borderopacity="1.0"
     gridtolerance="10000"
     guidetolerance="10"
     objecttolerance="10"
     inkscape:pageopacity="0.0"
     inkscape:pageshadow="2"
     inkscape:zoom="1.979899"
     inkscape:cx="348.85069"
     inkscape:cy="853.36003"
     inkscape:document-units="px"
     inkscape:current-layer="layer2"
     showgrid="false"
     showguides="true"
     inkscape:guide-bbox="true"
     inkscape:window-width="1670"
     inkscape:window-height="964"
     inkscape:window-x="0"
     inkscape:window-y="28" />
  <metadata
     id="metadata7">
    <rdf:RDF>
      <cc:Work
         rdf:about="">
        <dc:format>image/svg+xml</dc:format>
        <dc:type
           rdf:resource="http://purl.org/dc/dcmitype/StillImage" />
      </cc:Work>
    </rdf:RDF>
  </metadata>
  <g
     inkscape:label="modele"
     inkscape:groupmode="layer"
     id="layer1"
     sodipodi:insensitive="true"
     style="display:none">
    <path
       style="opacity:1;fill:none;fill-opacity:0.96078431;fill-rule:evenodd;stroke:#000000;stroke-opacity:1"
       d="M 229.8125,130.59375 C 229.8125,130.59375 211.13516,155.35057 210.125,201.3125 L 210.125,202.8125 C 210.125,202.8125 211.02179,202.86479 211.15625,202.875 C 211.32351,212.90711 219.49075,221 229.5625,221 C 239.53024,221 247.63979,213.07566 247.96875,203.1875 C 248.62645,202.95966 249,202.65458 249,202.3125 C 248.9999,156.84441 229.81251,130.59375 229.8125,130.59375 z"
       id="path2393" />
    <path
       style="opacity:1;fill:none;fill-opacity:0.96078431;fill-rule:evenodd;stroke:#000000;stroke-opacity:1"
       d="M 302.28561,130.85172 C 302.28561,130.85172 283.60827,155.60854 282.59811,201.57047 L 282.59811,203.07047 C 282.59811,203.07047 283.4949,203.12276 283.62936,203.13297 C 283.79662,213.16508 291.96386,221.25797 302.03561,221.25797 C 312.00335,221.25797 320.1129,213.33363 320.44186,203.44547 C 321.09956,203.21763 321.47311,202.91255 321.47311,202.57047 C 321.47301,157.10238 302.28562,130.85172 302.28561,130.85172 z"
       id="path2404" />
    <path
       style="opacity:1;fill:none;fill-opacity:0.96078431;fill-rule:evenodd;stroke:#000000;stroke-opacity:1"
       d="M 375.52167,131.3568 C 375.52167,131.3568 356.84433,156.11362 355.83417,202.07555 L 355.83417,203.57555 C 355.83417,203.57555 356.73096,203.62784 356.86542,203.63805 C 357.03268,213.67016 365.19992,221.76305 375.27167,221.76305 C 385.23941,221.76305 393.34896,213.83871 393.67792,203.95055 C 394.33562,203.72271 394.70917,203.41763 394.70917,203.07555 C 394.70907,157.60746 375.52168,131.3568 375.52167,131.3568 z"
       id="path2406" />
    <path
       style="opacity:1;fill:none;fill-opacity:0.96078431;fill-rule:evenodd;stroke:#000000;stroke-opacity:1"
       d="M 445.72728,132.36695 C 445.72728,132.36695 427.04994,157.12377 426.03978,203.0857 L 426.03978,204.5857 C 426.03978,204.5857 426.93657,204.63799 427.07103,204.6482 C 427.23829,214.68031 435.40553,222.7732 445.47728,222.7732 C 455.44502,222.7732 463.55457,214.84886 463.88353,204.9607 C 464.54123,204.73286 464.91478,204.42778 464.91478,204.0857 C 464.91468,158.61761 445.72729,132.36695 445.72728,132.36695 z"
       id="path2408" />
    <path
       style="opacity:1;fill:none;fill-opacity:0.96078431;fill-rule:evenodd;stroke:#000000;stroke-opacity:1"
       d="M 519.46841,131.86188 C 519.46841,131.86188 500.79107,156.6187 499.78091,202.58063 L 499.78091,204.08063 C 499.78091,204.08063 500.6777,204.13292 500.81216,204.14313 C 500.97942,214.17524 509.14666,222.26813 519.21841,222.26813 C 529.18615,222.26813 537.2957,214.34379 537.62466,204.45563 C 538.28236,204.22779 538.65591,203.92271 538.65591,203.58063 C 538.65581,158.11254 519.46842,131.86188 519.46841,131.86188 z"
       id="path2410" />
    <path
       style="opacity:1;fill:none;fill-opacity:0.96078431;fill-rule:evenodd;stroke:#000000;stroke-opacity:1"
       d="M 166.92517,131.3568 C 166.92517,131.3568 148.24783,156.11362 147.23767,202.07555 L 147.23767,203.57555 C 147.23767,203.57555 148.13446,203.62784 148.26892,203.63805 C 148.43618,213.67016 156.60342,221.76305 166.67517,221.76305 C 176.64291,221.76305 184.75246,213.83871 185.08142,203.95055 C 185.73912,203.72271 186.11267,203.41763 186.11267,203.07555 C 186.11257,157.60746 166.92518,131.3568 166.92517,131.3568 z"
       id="path2412" />
  </g>
  <g
     inkscape:groupmode="layer"
     id="layer2"
     inkscape:label="dessin"
     style="display:inline">
    <path
       style="opacity:1;fill:url(#radialGradient4717);fill-opacity:1;fill-rule:evenodd;stroke:url(#pattern4729);stroke-width:1px;stroke-linecap:butt;stroke-linejoin:miter;stroke-opacity:0.35546875;filter:url(#filter4715)"
       d="M 167.18025,219.49141 C 166.33845,219.65977 165.49666,219.82812 164.65486,219.99648 C 162.32714,220.46203 160.09974,220.50156 157.5838,220.50156 C 155.19181,220.50156 153.23895,219.59183 151.01781,218.48125 C 150.12664,218.03567 148.75564,213.4732 148.49242,212.42034 C 147.92319,210.1434 147.06012,207.70128 146.47212,205.34927 C 145.91254,203.11097 146.4845,199.74392 146.9772,197.77313 C 147.56835,195.40853 147.42185,192.96405 147.98735,190.70206 C 148.52905,188.53524 147.48227,185.54624 147.48227,183.12592 C 147.48227,180.76889 147.48227,178.41187 147.48227,176.05485 C 147.48227,174.10347 148.99846,171.00026 149.50258,168.98378 C 150.17337,166.30063 150.90486,164.38481 151.52288,161.91271 C 152.13117,159.47955 152.39929,157.63451 153.54319,155.34672 C 154.41649,153.60012 155.00201,150.91385 156.06857,148.78073 C 157.19504,146.52779 159.89045,143.85324 161.11933,142.21474 C 162.4253,140.47345 163.17468,138.60912 164.14979,136.6589 C 165.45683,134.04482 165.9627,131.42756 166.67517,128.57768 C 167.28683,126.13102 167.07344,123.44908 167.68532,121.00153 C 168.63945,117.18502 167.68532,117.56155 167.68532,121.50661 C 167.68532,124.11865 169.36841,126.89309 170.2107,128.57768 C 171.59499,131.34624 172.63893,132.22968 173.24116,134.63859 C 173.6768,136.38116 175.30409,138.76445 176.27162,140.69951 C 177.36942,142.89511 178.3534,144.358 179.30208,146.25535 C 180.30651,148.26422 180.81731,151.25045 180.81731,153.32642 C 180.81731,155.01924 182.77389,158.75482 183.34269,159.89241 C 184.47419,162.15542 184.20702,165.15661 185.36299,167.46855 C 186.1072,168.95697 186.37314,171.85534 186.37314,174.03454 C 186.37314,176.11007 185.36393,179.08155 184.85792,181.10561 C 184.2993,183.34007 183.84776,185.73063 183.84776,188.17668 C 183.84776,190.46138 182.37639,193.05203 181.82746,195.24775 C 181.18955,197.79938 180.81731,199.90604 180.81731,202.82389 C 180.81731,205.37892 180.31223,207.51363 180.31223,209.89496 C 180.31223,212.81082 178.71213,214.61038 177.78685,216.46095 C 177.32789,217.37887 174.0795,219.07224 173.24116,219.49141 C 172.20255,220.01071 168.02359,219.49141 167.18025,219.49141 z"
       id="path2429"
       inkscape:export-filename="/home/roa/JM/feu.png"
       inkscape:export-xdpi="52.58231"
       inkscape:export-ydpi="52.58231" />
    <path
       style="opacity:1;fill:url(#radialGradient4715);fill-opacity:1;fill-rule:evenodd;stroke:url(#pattern4719);stroke-width:1px;stroke-linecap:butt;stroke-linejoin:miter;stroke-opacity:0.35546875;filter:url(#filter4711)"
       d="M 210.6168,218.48125 C 210.2306,218.67436 214.78276,219.49141 219.70817,219.49141 C 221.90226,219.49141 224.87741,217.91694 226.77924,216.96603 C 229.22292,215.74419 229.2422,213.17511 229.8097,210.90511 C 230.2411,209.1795 231.32493,207.33766 231.32493,204.8442 C 231.32493,202.61952 231.82877,200.80854 232.33508,198.78328 C 232.89573,196.54068 231.83386,193.24287 231.32493,191.20714 C 230.63606,188.45164 229.98228,186.84668 229.30462,184.13607 C 228.75859,181.95192 228.42057,179.5897 227.78939,177.065 C 227.24214,174.87599 226.03281,171.53152 225.26401,169.99393 C 224.50985,168.48561 224.58215,165.24618 224.25386,163.93302 C 223.70324,161.73055 224.25386,158.64056 224.25386,156.35687 C 224.25386,153.59194 223.74878,151.47722 223.74878,148.78073 C 223.74878,146.25535 223.74878,143.72997 223.74878,141.20459 C 223.74878,138.6792 223.74878,136.15382 223.74878,133.62844 C 223.74878,130.98882 223.24704,129.60117 222.73863,127.56753 C 222.17431,125.31024 221.35165,123.53484 220.71833,121.00153 C 220.20275,118.93924 220.71833,116.06641 220.71833,113.93047 C 220.71833,111.7418 219.17175,118.03378 218.19295,119.99138 C 216.90676,122.56375 216.37647,124.22683 215.66756,127.06245 C 215.04195,129.5649 214.23822,131.26458 213.64726,133.62844 C 213.04518,136.03677 210.83066,136.95012 209.10157,138.6792 C 207.47568,140.3051 206.25222,141.52856 204.55589,143.22489 C 203.21113,144.56965 201.90686,148.01786 201.02035,149.79088 C 199.82849,152.17461 199.11205,154.89869 198.49497,157.36703 C 197.73284,160.41555 197.48482,164.42785 197.48482,167.46855 C 197.48482,170.10912 195.96959,172.68187 195.96959,175.54977 C 195.96959,178.32516 194.95944,179.95876 194.95944,182.62084 C 194.95944,185.39956 193.55683,188.23128 192.93913,190.70206 C 192.30601,193.23453 192.43406,196.00293 192.43406,198.78328 C 192.43406,201.41877 192.34896,203.99874 192.93913,206.35942 C 193.65288,209.2144 194.2277,211.6886 196.47467,213.93557 C 198.48175,215.94265 200.03568,216.84613 202.53558,217.4711 C 205.48529,218.20853 206.59081,219.28645 210.6168,218.48125 z"
       id="path2431"
       inkscape:export-filename="/home/roa/JM/feu.png"
       inkscape:export-xdpi="52.58231"
       inkscape:export-ydpi="52.58231" />
    <path
       style="opacity:1;fill:url(#radialGradient4713);fill-opacity:1;fill-rule:evenodd;stroke:url(#pattern4721);stroke-width:1px;stroke-linecap:butt;stroke-linejoin:miter;stroke-opacity:0.35546875;filter:url(#filter4707)"
       d="M 259.6092,217.97618 C 263.79559,219.02278 264.81689,218.82084 268.1955,217.97618 C 270.67212,217.35703 272.71361,215.47838 274.25641,213.93557 C 275.89114,212.30085 277.30442,211.37509 278.29702,209.38989 C 279.07775,207.82844 279.81534,205.842 280.31733,203.83405 C 280.71874,202.22841 281.92422,199.42678 282.33763,197.77313 C 282.84298,195.75173 282.14352,192.451 281.83256,191.20714 C 281.20366,188.69153 280.81534,187.13827 280.31733,185.14623 C 279.73344,182.81067 279.43225,181.10083 278.8021,178.58023 C 278.14442,175.94952 277.46122,174.22687 276.7818,171.50917 C 276.22996,169.30181 276.3204,166.63313 275.77164,164.4381 C 275.23207,162.27981 274.87684,159.84875 274.25641,157.36703 C 273.66664,155.00794 273.16305,153.15999 272.23611,151.30612 C 271.38521,149.60432 270.32668,147.20392 269.71073,144.74012 C 269.24765,142.88783 267.72424,141.27223 266.68027,139.18429 C 265.75835,137.34044 265.10335,135.40197 264.65996,133.62845 C 264.12833,131.5019 264.15489,128.88951 264.15489,127.06245 C 264.15489,125.44328 262.37454,122.49161 261.62951,121.00154 C 260.37425,118.49103 260.11428,117.05273 260.11428,121.00154 C 260.11428,124.00245 259.65043,125.49225 258.09397,127.56753 C 257.06897,128.9342 257.0288,131.32313 256.57874,133.12337 C 256.1771,134.72995 253.89922,136.81305 252.53813,138.17413 C 250.75236,139.9599 249.56165,142.1068 248.49752,144.23505 C 247.53573,146.15863 245.68294,147.84392 244.96199,149.28581 C 243.7818,151.64619 244.09619,154.26423 243.44676,156.86195 C 242.87556,159.14675 242.43661,162.01741 242.43661,164.4381 C 242.43661,167.02285 241.93153,168.95996 241.93153,171.50917 C 241.93153,174.3107 241.42646,176.26127 241.42646,178.58023 C 241.42646,181.16499 240.92138,183.1021 240.92138,185.6513 C 240.92138,188.17668 240.92138,190.70206 240.92138,193.22745 C 240.92138,195.77223 241.93153,198.20793 241.93153,200.80359 C 241.93153,203.5456 242.43661,204.89447 242.43661,207.36958 C 242.43661,210.03628 244.14398,211.60234 245.46707,212.92542 C 247.00574,214.46409 248.8398,214.77876 251.52798,215.4508 C 253.89038,216.0414 255.10557,216.85028 257.5889,217.47111 C 258.26233,217.63947 258.93577,217.80782 259.6092,217.97618 z"
       id="path2433"
       inkscape:export-filename="/home/roa/JM/feu.png"
       inkscape:export-xdpi="52.58231"
       inkscape:export-ydpi="52.58231" />
    <path
       style="opacity:1;fill:url(#radialGradient4711);fill-opacity:1;fill-rule:evenodd;stroke:url(#pattern4725);stroke-width:1px;stroke-linecap:butt;stroke-linejoin:miter;stroke-opacity:0.35546875;filter:url(#filter4703)"
       d="M 357.08894,217.97618 C 356.24714,217.80782 355.40535,217.63946 354.56356,217.4711 C 352.36601,217.03159 349.88721,216.93336 347.99756,216.46095 C 346.10642,215.98816 344.89525,213.35864 343.95695,212.42034 C 343.83791,212.30129 343.62024,212.42034 343.45188,212.42034 C 342.81022,212.42034 340.83352,207.18362 340.42142,206.35942 C 339.22335,203.96328 338.55796,201.43098 337.89604,198.78328 C 337.4282,196.91194 337.39096,194.27233 337.39096,191.71221 C 337.39096,188.78523 337.76171,186.69367 338.40111,184.13607 C 339.10132,181.33524 340.77315,180.20377 341.43157,177.57007 C 342.08124,174.97141 342.81186,172.554 343.45188,169.99393 C 344.05533,167.5801 344.83721,166.47289 345.47218,163.93301 C 346.02659,161.71538 345.97726,159.34469 345.97726,156.86195 C 345.97726,154.33657 345.97726,151.81118 345.97726,149.2858 C 345.97726,146.80541 346.48233,144.80109 346.48233,142.21474 C 346.48233,139.62712 347.02133,137.29965 346.48233,135.14367 C 345.90262,132.82479 346.03079,130.30704 345.47218,128.0726 C 344.79319,125.35664 344.05897,122.21571 345.97726,126.05229 C 347.45842,129.01462 348.76353,130.10962 350.01787,132.61829 C 351.13159,134.84573 353.17775,136.78832 355.06863,138.6792 C 356.42071,140.03128 358.01135,142.54433 359.10924,144.74012 C 360.07076,146.66315 361.07852,148.57663 361.63462,150.80103 C 362.32138,153.54806 363.00389,156.16225 364.66508,158.37718 C 365.5508,159.55814 366.50131,163.05978 367.19046,164.43809 C 367.98676,166.03068 368.68275,168.89202 369.21077,171.00408 C 369.85215,173.56962 370.726,175.611 370.726,178.07515 C 370.726,180.83703 371.23107,182.21919 371.23107,185.14622 C 371.23107,187.78521 371.3225,190.33635 370.726,192.72236 C 370.21042,194.78466 370.726,197.65749 370.726,199.79343 C 370.726,202.29408 369.19926,204.8672 368.20061,206.8645 C 367.10022,209.06529 365.4307,210.64457 363.65493,212.42034 C 361.74541,214.32986 359.49263,216.05322 357.08894,217.97618 z"
       id="path2437"
       inkscape:export-filename="/home/roa/JM/feu.png"
       inkscape:export-xdpi="52.58231"
       inkscape:export-ydpi="52.58231" />
    <path
       style="opacity:1;fill:url(#radialGradient4709);fill-opacity:1;fill-rule:evenodd;stroke:url(#pattern4727);stroke-width:1;stroke-linecap:butt;stroke-linejoin:miter;stroke-miterlimit:4;stroke-dasharray:none;stroke-opacity:0.35546875;filter:url(#filter4699)"
       d="M 398.71131,218.9016 C 399.68885,218.70331 400.66639,218.50502 401.64393,218.30674 C 404.53589,217.72013 406.49585,216.48165 408.68222,215.9273 C 410.46788,215.47454 412.90635,212.238 414.54746,210.57357 C 416.09721,209.0018 416.30822,205.21505 416.89355,202.8404 C 417.64148,199.80616 417.82861,196.6676 418.65313,193.32265 C 419.38968,190.33459 419.43151,187.76321 418.06661,184.99462 C 416.68707,182.19634 415.95737,178.93162 414.54746,176.07173 C 412.90329,172.73666 411.99439,170.89301 410.4418,167.7437 C 409.01771,164.85508 407.8198,161.83033 406.33612,158.82081 C 404.86971,155.84631 403.99003,152.65134 403.99003,149.30306 C 403.99003,146.08883 401.86298,141.86369 401.05741,138.5956 C 400.15521,134.93549 398.95671,131.85798 398.12478,128.48298 C 397.45828,125.77906 396.95174,123.42504 396.95174,120.15496 C 396.95174,118.0449 394.60565,122.87597 394.60565,124.91384 C 394.60565,127.33489 393.44152,130.82619 392.84607,133.24186 C 392.14619,136.08116 392.92426,139.46809 392.25954,142.16475 C 391.43568,145.50705 390.49997,149.46671 390.49997,152.87222 C 390.49997,156.50269 388.39125,160.83209 387.56735,164.17454 C 386.82338,167.19272 387.1005,170.23248 386.39431,173.09743 C 385.69214,175.94599 385.91923,179.18872 385.22126,182.02032 C 384.48788,184.99551 384.0482,187.40982 384.0482,190.94321 C 384.0482,194.71929 383.78666,195.83078 384.63473,199.27124 C 385.32997,202.09172 385.28432,204.88079 385.80778,207.00441 C 386.46952,209.689 387.56164,211.75169 388.7404,214.14273 C 389.95555,216.60756 394.0452,216.67749 395.77869,217.11702 C 396.88465,217.39743 397.73377,218.30674 398.71131,218.9016 z"
       id="path2441"
       inkscape:export-filename="/home/roa/JM/feu.png"
       inkscape:export-xdpi="52.58231"
       inkscape:export-ydpi="52.58231" />
    <path
       style="opacity:1;fill:url(#radialGradient4707);fill-opacity:1;fill-rule:evenodd;stroke:url(#pattern4723);stroke-width:1px;stroke-linecap:butt;stroke-linejoin:miter;stroke-opacity:0.35546875;filter:url(#filter4695)"
       d="M 308.09654,217.4711 C 309.84281,216.34287 315.2475,213.89562 318.19806,212.42034 C 321.2513,210.89372 322.45526,209.53369 323.24882,206.35942 C 323.88343,203.82098 324.60807,201.42751 325.26913,198.78328 C 325.82932,196.5425 325.25228,193.16004 324.76405,191.20713 C 324.06507,188.41121 323.40933,187.30349 322.74375,184.64114 C 322.01982,181.74543 321.22852,180.57789 321.22852,177.57007 C 321.22852,174.97494 320.2969,171.82328 319.71329,169.48885 C 318.80339,165.84926 317.05043,162.87801 316.17776,159.38733 C 315.25928,155.71343 313.50376,152.22689 312.64222,148.78073 C 311.82109,145.49618 311.4488,142.49179 310.62192,139.18428 C 309.8802,136.21738 309.10669,132.05469 309.10669,129.08275 C 309.10669,126.33937 308.42757,123.6839 307.59146,122.01168 C 305.77294,118.37465 305.64668,119.28331 306.58131,123.02184 C 307.16524,125.35754 306.58131,128.6996 306.58131,131.10306 C 306.58131,133.67949 305.06608,135.82715 305.06608,138.6792 C 305.06608,140.53204 303.47275,143.03222 303.04577,144.74012 C 302.43853,147.16909 301.114,147.92153 300.52039,150.29595 C 299.98787,152.42605 299.00027,154.35612 298.50009,156.35687 C 297.95883,158.52192 297.07628,160.03181 296.47978,162.41778 C 295.77465,165.23832 294.67676,167.60956 293.9544,170.49901 C 293.27908,173.20029 293.44932,176.2069 293.44932,179.0853 C 293.44932,181.6426 292.94425,184.44347 292.94425,187.16652 C 292.94425,190.19698 292.94425,193.22744 292.94425,196.2579 C 292.94425,198.93853 294.04092,201.98677 294.96455,203.83404 C 296.20415,206.31324 297.44642,207.78761 298.50009,209.89495 C 299.72392,212.34261 301.50211,213.90713 303.55085,215.95587 C 304.00644,216.41146 307.29766,217.15155 308.09654,217.4711 z"
       id="path2455"
       inkscape:export-filename="/home/roa/JM/feu.png"
       inkscape:export-xdpi="52.58231"
       inkscape:export-ydpi="52.58231" />
  </g>
</svg>
